<svg width="38" height="53" viewBox="0 0 38 53" fill="none" xmlns="http://www.w3.org/2000/svg">
<path d="M18 14C18 15.1046 17.1046 16 16 16C14.8954 16 14 15.1046 14 14C14 12.8954 14.8954 12 16 12C17.1046 12 18 12.8954 18 14Z" fill="#71C6F5"/>
<path d="M18 24C18 25.1046 17.1046 26 16 26C14.8954 26 14 25.1046 14 24C14 22.8954 14.8954 22 16 22C17.1046 22 18 22.8954 18 24Z" fill="#71C6F5"/>
<path d="M28 19C28 20.1046 27.1046 21 26 21C24.8954 21 24 20.1046 24 19C24 17.8954 24.8954 17 26 17C27.1046 17 28 17.8954 28 19Z" fill="#71C6F5"/>
<path d="M14 19C14 20.1046 13.1046 21 12 21C10.8954 21 10 20.1046 10 19C10 17.8954 10.8954 17 12 17C13.1046 17 14 17.8954 14 19Z" fill="#71C6F5"/>
<path d="M24 5C24 7.76142 21.7614 10 19 10C16.2386 10 14 7.76142 14 5C14 2.23858 16.2386 0 19 0C21.7614 0 24 2.23858 24 5Z" fill="white"/>
<path fill-rule="evenodd" clip-rule="evenodd" d="M19 7.5C20.3807 7.5 21.5 6.38071 21.5 5C21.5 3.61929 20.3807 2.5 19 2.5C17.6193 2.5 16.5 3.61929 16.5 5C16.5 6.38071 17.6193 7.5 19 7.5ZM19 10C21.7614 10 24 7.76142 24 5C24 2.23858 21.7614 0 19 0C16.2386 0 14 2.23858 14 5C14 7.76142 16.2386 10 19 10Z" fill="#7E7E7E"/>
<path d="M24 33C24 35.7614 21.7614 38 19 38C16.2386 38 14 35.7614 14 33C14 30.2386 16.2386 28 19 28C21.7614 28 24 30.2386 24 33Z" fill="white"/>
<path fill-rule="evenodd" clip-rule="evenodd" d="M19 35.5C20.3807 35.5 21.5 34.3807 21.5 33C21.5 31.6193 20.3807 30.5 19 30.5C17.6193 30.5 16.5 31.6193 16.5 33C16.5 34.3807 17.6193 35.5 19 35.5ZM19 38C21.7614 38 24 35.7614 24 33C24 30.2386 21.7614 28 19 28C16.2386 28 14 30.2386 14 33C14 35.7614 16.2386 38 19 38Z" fill="#7E7E7E"/>
<path d="M38 12C38 14.7614 35.7614 17 33 17C30.2386 17 28 14.7614 28 12C28 9.23858 30.2386 7 33 7C35.7614 7 38 9.23858 38 12Z" fill="white"/>
<path fill-rule="evenodd" clip-rule="evenodd" d="M33 14.5C34.3807 14.5 35.5 13.3807 35.5 12C35.5 10.6193 34.3807 9.5 33 9.5C31.6193 9.5 30.5 10.6193 30.5 12C30.5 13.3807 31.6193 14.5 33 14.5ZM33 17C35.7614 17 38 14.7614 38 12C38 9.23858 35.7614 7 33 7C30.2386 7 28 9.23858 28 12C28 14.7614 30.2386 17 33 17Z" fill="#7E7E7E"/>
<path d="M38 26C38 28.7614 35.7614 31 33 31C30.2386 31 28 28.7614 28 26C28 23.2386 30.2386 21 33 21C35.7614 21 38 23.2386 38 26Z" fill="white"/>
<path fill-rule="evenodd" clip-rule="evenodd" d="M33 28.5C34.3807 28.5 35.5 27.3807 35.5 26C35.5 24.6193 34.3807 23.5 33 23.5C31.6193 23.5 30.5 24.6193 30.5 26C30.5 27.3807 31.6193 28.5 33 28.5ZM33 31C35.7614 31 38 28.7614 38 26C38 23.2386 35.7614 21 33 21C30.2386 21 28 23.2386 28 26C28 28.7614 30.2386 31 33 31Z" fill="#7E7E7E"/>
<path d="M10 26C10 28.7614 7.76142 31 5 31C2.23858 31 0 28.7614 0 26C0 23.2386 2.23858 21 5 21C7.76142 21 10 23.2386 10 26Z" fill="white"/>
<path fill-rule="evenodd" clip-rule="evenodd" d="M5 28.5C6.38071 28.5 7.5 27.3807 7.5 26C7.5 24.6193 6.38071 23.5 5 23.5C3.61929 23.5 2.5 24.6193 2.5 26C2.5 27.3807 3.61929 28.5 5 28.5ZM5 31C7.76142 31 10 28.7614 10 26C10 23.2386 7.76142 21 5 21C2.23858 21 0 23.2386 0 26C0 28.7614 2.23858 31 5 31Z" fill="#7E7E7E"/>
<path d="M10 12C10 14.7614 7.76142 17 5 17C2.23858 17 0 14.7614 0 12C0 9.23858 2.23858 7 5 7C7.76142 7 10 9.23858 10 12Z" fill="white"/>
<path fill-rule="evenodd" clip-rule="evenodd" d="M5 14.5C6.38071 14.5 7.5 13.3807 7.5 12C7.5 10.6193 6.38071 9.5 5 9.5C3.61929 9.5 2.5 10.6193 2.5 12C2.5 13.3807 3.61929 14.5 5 14.5ZM5 17C7.76142 17 10 14.7614 10 12C10 9.23858 7.76142 7 5 7C2.23858 7 0 9.23858 0 12C0 14.7614 2.23858 17 5 17Z" fill="#7E7E7E"/>
<path d="M24 14C24 15.1046 23.1046 16 22 16C20.8954 16 20 15.1046 20 14C20 12.8954 20.8954 12 22 12C23.1046 12 24 12.8954 24 14Z" fill="#71C6F5"/>
<path d="M24 24C24 25.1046 23.1046 26 22 26C20.8954 26 20 25.1046 20 24C20 22.8954 20.8954 22 22 22C23.1046 22 24 22.8954 24 24Z" fill="#71C6F5"/>
<path d="M2.81693 42.5H3.92693V53H2.81693V42.5Z" fill="#71C6F5"/>
<path d="M7.34329 42.5H11.6183C12.7283 42.5 13.7083 42.725 14.5583 43.175C15.4083 43.615 16.0683 44.235 16.5383 45.035C17.0083 45.825 17.2433 46.73 17.2433 47.75C17.2433 48.77 17.0083 49.68 16.5383 50.48C16.0683 51.27 15.4083 51.89 14.5583 52.34C13.7083 52.78 12.7283 53 11.6183 53H7.34329V42.5ZM11.5583 52.04C12.4783 52.04 13.2833 51.86 13.9733 51.5C14.6633 51.13 15.1983 50.625 15.5783 49.985C15.9583 49.335 16.1483 48.59 16.1483 47.75C16.1483 46.91 15.9583 46.17 15.5783 45.53C15.1983 44.88 14.6633 44.375 13.9733 44.015C13.2833 43.645 12.4783 43.46 11.5583 43.46H8.45329V52.04H11.5583Z" fill="#71C6F5"/>
<path d="M19.7359 42.5H20.8459V52.04H26.7259V53H19.7359V42.5Z" fill="#71C6F5"/>
<path d="M35.9939 52.04V53H28.5689V42.5H35.7689V43.46H29.6789V47.195H35.1089V48.14H29.6789V52.04H35.9939Z" fill="#71C6F5"/>
</svg>
